<?xml version="1.0" encoding="utf-8"?>
<!-- Generator: Adobe Illustrator 24.0.2, SVG Export Plug-In . SVG Version: 6.00 Build 0)  -->
<svg version="1.1" id="Ebene_1" xmlns="http://www.w3.org/2000/svg" xmlns:xlink="http://www.w3.org/1999/xlink" x="0px" y="0px"
	 viewBox="0 0 135 90" style="enable-background:new 0 0 135 90;" xml:space="preserve">
<style type="text/css">
	.st0{fill:#231F20;}
</style>
<title>logo-british-museum</title>
<path id="path7420" class="st0" d="M107.9,34.2c-1.1,0-2.9,1-2.9,2.2c0,1.1,0.7,1.6,1.8,1.6c1.3,0,3.4-0.6,3.4-2.2
	C110.3,34.5,109,34.2,107.9,34.2z M42.1,35.1c-0.1,0-0.2,0.1-0.2,0.1c-0.8,1.9-2.6,3.2-4.6,3.8c0,0-0.1,0-0.1,0.1v1.2
	c0,0.2,0.1,0.1,0.1,0.1h1.1c0.1,0,0.1,0.1,0.1,0.1v7.5c0,2.2,0.9,3.4,3.4,3.4c2.2,0,2.3-0.1,4-1.3c0,0,0.1,0,0.1-0.2
	c0-0.1-0.5-1.1-0.5-1.3c0-0.2-0.2-0.1-0.2-0.1c-0.3,0.2-0.4,0.2-0.8,0.2c-0.4,0-1.1-0.2-1.1-1v-7.4c0,0,0-0.1,0.1-0.1h1.7
	c0,0,0.1,0.1,0.1-0.1c0-0.2,0.4-1.8,0.4-1.8s0-0.1-0.1-0.1h-2.2c0,0-0.1,0-0.1-0.1v-0.9c0-0.6,0-1.3,0.2-1.9c0,0,0.1-0.1-0.1-0.1
	C43.3,35.3,42.3,35.2,42.1,35.1z M71.2,36.1c-1.4,0-1.9,0.4-2.2,1.3c0,0-0.2,0.6-0.3,0.9c0,0.2-0.2,0.1-0.2,0.1
	c-0.7-0.1-1.5-0.3-2.8-0.3c-2.9,0-5.9,1.6-5.9,5.3c0,2.6,2.2,4.1,4.4,4.5c0,0,0.4,0.1,0,0.2c-0.7,0.2-2,1-3.6,1.3c0,0-0.2,0-0.1,0.2
	c0,0.1,0.5,1.2,0.5,1.4c0,0.1,0.2,0.1,0.2,0.1c0.7-0.2,2.8,0,3.2,0.1c0.3,0,0,0.1,0,0.1c-1.1,0.2-2.4,1-2.4,2.2
	c0,2.1,2.4,2.6,4.7,2.6c1.6,0,5.4-0.7,5.4-3.5c0-2.8-4.4-3.4-6.5-3.6c-0.4,0,0-0.1,0-0.1c3.2-0.8,6.9-1.6,6.9-5.6
	c0-3-2.5-3.8-2.5-4.3c0-0.3,0.2-0.5,0.5-0.6c0.6,0,0.6,0,0.9,0.2c0,0,0.1,0.1,0.1-0.1c0-0.1,0.5-2,0.5-2.1c0-0.2-0.1-0.1-0.1-0.1
	C71.8,36.1,71.5,36.1,71.2,36.1L71.2,36.1z M27.5,37.5C27.4,37.5,27.4,37.6,27.5,37.5c-0.1,0.1-1.6,3.9-1.7,4
	c-0.1,0.2,0.1,0.2,0.1,0.2s1.3,0.5,1.4,0.5c0.1,0.1,0.2,0,0.2,0c0.7-0.9,1.4-1.4,2.9-1.4c1.2,0,1.8,0.4,1.8,1.5v0.4
	c0,0.1-0.1,0.2-0.1,0.2l-3.6,0.1c-2.4,0-4.3,1.7-4.3,4.7c0,2.4,1.8,3.9,4.2,3.9c1.4,0,2.6-0.6,3.6-1.4c0,0,0.2-0.3,0.2,0
	c0,0.3,0.1,0.6,0.2,0.9c0,0.2,0.1,0.1,0.1,0.1h5c0,0,0.2,0.1,0.2-0.1v-1.3c0,0,0-0.1-0.2-0.1h-0.6c-0.1,0-0.1-0.2-0.1-0.2v-7
	c0-3-2-4.3-4.9-4.3c-1.1,0-2.1,0.1-3.1,0.5c0,0-0.2,0.1-0.1-0.2c0.1-0.1,0.1-0.3,0.1-0.3s0.1-0.1-0.1-0.2
	C28.7,37.8,27.7,37.5,27.5,37.5C27.5,37.5,27.5,37.5,27.5,37.5L27.5,37.5z M49.4,37.5C49.3,37.5,49.3,37.6,49.4,37.5
	c-0.1,0.1-1.6,3.9-1.7,4c-0.1,0.2,0.1,0.2,0.1,0.2s1.3,0.5,1.4,0.5c0.1,0.1,0.2,0,0.2,0c0.7-0.9,1.4-1.4,2.9-1.4
	c1.2,0,1.8,0.4,1.8,1.5v0.4c0,0.1,0,0.2,0,0.2l-3.6,0.1c-2.4,0-4.3,1.7-4.3,4.7c0,2.4,1.8,3.9,4.2,3.9c1.4,0,2.5-0.6,3.6-1.4
	c0,0,0.2-0.3,0.2,0c0,0.3,0.1,0.6,0.2,0.9c0,0.2,0.1,0.1,0.1,0.1h5c0,0,0.2,0.1,0.2-0.1v-1.3c0,0,0-0.1-0.2-0.1H59
	c-0.1,0-0.1-0.2-0.1-0.2v-7c0-3-2-4.3-5-4.3c-1.1,0-2.1,0.1-3,0.5c0,0-0.2,0.1-0.1-0.2c0.1-0.1,0.1-0.3,0.1-0.3s0.1-0.1-0.1-0.2
	C50.7,37.8,49.7,37.5,49.4,37.5C49.4,37.5,49.4,37.5,49.4,37.5L49.4,37.5z M114.2,37.5C114.2,37.5,114.2,37.6,114.2,37.5
	c-0.1,0.1-1.6,3.9-1.7,4c-0.1,0.2,0.1,0.2,0.1,0.2s1.3,0.5,1.4,0.5c0.1,0.1,0.2,0,0.2,0c0.7-0.9,1.4-1.4,2.9-1.4
	c1.2,0,1.8,0.4,1.8,1.5v0.4c0,0.1,0,0.2,0,0.2l-3.6,0.1c-2.4,0-4.3,1.7-4.3,4.7c0,2.4,1.8,3.9,4.2,3.9c1.4,0,2.5-0.6,3.6-1.4
	c0,0,0.2-0.3,0.2,0c0,0.3,0.1,0.6,0.2,0.9c0,0.2,0.1,0.1,0.1,0.1h5c0,0,0.2,0.1,0.2-0.1v-1.3c0,0,0-0.1-0.2-0.1h-0.6
	c-0.1,0-0.1-0.2-0.1-0.2v-7c0-3-2-4.3-5-4.3c-1.1,0-2.1,0.1-3,0.5c0,0-0.2,0.1-0.1-0.2c0.1-0.1,0.1-0.3,0.1-0.3s0.1-0.1-0.1-0.2
	C115.5,37.8,114.5,37.5,114.2,37.5C114.3,37.5,114.3,37.5,114.2,37.5L114.2,37.5z M80.7,38.1c-4.2,0-7.5,2.6-7.5,6.7
	c0,4.2,3.3,6.7,7.5,6.7c4.3,0,7.5-2.6,7.5-6.7C88.2,40.6,85,38.1,80.7,38.1z M98.5,38.1c-1.8,0-3.1,1-4.4,2c0,0-0.1,0.2-0.1,0v-1.9
	c0-0.1-0.1-0.1-0.1-0.1l-5.6,1.5c0,0-0.1,0-0.1,0.1V41c0,0.1,0.1,0.1,0.1,0.1s0.5-0.1,0.7-0.2c0.2-0.1,0.1,0.1,0.1,0.1v8.4
	c0,0,0,0.1-0.1,0.1h-0.8c0,0-0.1,0-0.1,0.1V51c0,0.2,0.1,0.1,0.1,0.1h6.7c0,0,0.1,0,0.1-0.1v-1.3c0-0.2-0.1-0.1-0.1-0.1H94
	c-0.1,0-0.1-0.1-0.1-0.1v-7.1c0-0.1,0.1-0.2,0.1-0.2c0.6-0.5,1.2-1,2.1-1c0.7,0,1.4,0.4,1.4,1.1v7.2c0,0,0,0.1-0.1,0.1h-0.8
	c0,0-0.1,0-0.1,0.1V51c0,0.1,0.1,0.1,0.1,0.1h6.5c0,0,0.1,0,0.1-0.1v-1.3c0-0.1-0.1-0.1-0.1-0.1h-0.7c-0.1,0-0.1-0.1-0.1-0.1v-7.7
	C102.4,40.3,101.9,38.1,98.5,38.1z M18.7,38.1c-1.2,0-2.1,0.5-3.2,1.2c0,0-0.1,0.1-0.1-0.1v-1c0-0.1-0.1-0.1-0.1-0.1l-5.6,1.4
	c0,0-0.1,0-0.1,0.1V41c0,0.2,0.1,0.1,0.1,0.1l0.6-0.2c0,0,0.2-0.1,0.2,0.1v12.4c0,0,0,0.2-0.2,0.2H9.7c0,0-0.2,0-0.2,0.2V55
	c0,0.2,0.2,0.2,0.2,0.2H17c0,0,0.1-0.1,0.1-0.2v-1.2c0-0.2-0.2-0.2-0.2-0.2h-1.4c-0.2,0-0.2-0.2-0.2-0.2v-2.2c0-0.1,0.1-0.1,0.1-0.1
	c0.7,0.4,1.7,0.5,2.5,0.5c3.9,0,6.2-3.6,6.2-7.3C24.2,40.6,21.8,38.1,18.7,38.1z M110,38.1C110,38.1,109.9,38.1,110,38.1l-5.6,1.5
	c0,0-0.1,0-0.1,0.1V41c0,0.2,0.2,0.1,0.2,0.1s0.4-0.1,0.7-0.1c0.2,0,0.1,0.1,0.1,0.2v8.2c0,0,0,0.1-0.1,0.1h-0.8c0,0-0.1,0-0.1,0.1
	V51c0,0.2,0.1,0.1,0.1,0.1h6.5c0.2,0,0.1-0.1,0.1-0.1s0-1.1,0-1.3c0-0.2-0.1-0.1-0.1-0.1h-0.6c-0.2,0-0.1-0.1-0.1-0.1V38.2
	C110.1,38.1,110,38.1,110,38.1L110,38.1z M65.5,39.7c2,0,2.8,3.9,2.8,5.3c0,1.2-0.4,1.7-1.4,1.7c-2,0-2.8-3.9-2.8-5.3
	C64.1,40.2,64.6,39.7,65.5,39.7z M79.9,40c2.7,0,3.5,4.7,3.5,6.6c0,1.4-0.4,2.9-1.8,2.9c-2.7,0-3.5-4.7-3.5-6.6
	C78.1,42,78.1,40,79.9,40z M16.2,40.8c0.8,0,3.2,0.2,3.2,4.9c0,2.9-0.7,3.9-2.3,3.9c-1.3,0-1.6-1-1.6-2.1v-6.3
	c0-0.2,0.1-0.2,0.1-0.2L16.2,40.8z M31.3,44.4H32c0.2,0,0.1,0.1,0.1,0.1v2.4c0,1-0.2,1.9-1.5,1.9c-1.3,0-1.6-1.1-1.6-2.1
	C29,45.3,30,44.4,31.3,44.4z M53.3,44.4h0.6c0.2,0,0.1,0.1,0.1,0.1v2.4c0,1-0.2,1.9-1.5,1.9c-1.3,0-1.6-1.1-1.6-2.1
	C51,45.3,51.9,44.4,53.3,44.4z M118.1,44.4h0.6c0.2,0,0.1,0.1,0.1,0.1v2.4c0,1-0.2,1.9-1.5,1.9c-1.3,0-1.6-1.1-1.6-2.1
	C115.8,45.3,116.8,44.4,118.1,44.4z M66.4,51.7C66.4,51.7,66.4,51.7,66.4,51.7c0.9,0.5,1.6,0.9,1.6,2.1c0,0.6-0.3,1-1,1
	c-0.7,0-1.1-0.7-1.1-1.3c0-0.6,0.2-1.4,0.4-1.6C66.3,51.7,66.3,51.7,66.4,51.7L66.4,51.7z"/>
<path id="path7424" class="st0" d="M125.2,36.5c-0.1,0-0.2-0.1-0.4-0.1h-0.3v0.7h0.3c0.1,0,0.2,0,0.3,0c0.1-0.1,0.2-0.1,0.2-0.3
	C125.3,36.6,125.3,36.5,125.2,36.5 M124.9,36.2c0.2,0,0.4,0,0.5,0.1c0.2,0.1,0.3,0.2,0.3,0.5c0,0.2-0.1,0.3-0.2,0.4
	c-0.1,0-0.2,0.1-0.3,0.1c0.1,0,0.2,0.1,0.3,0.2c0.1,0.1,0.1,0.2,0.1,0.3v0.1c0,0,0,0.1,0,0.1c0,0,0,0.1,0,0.1l0,0h-0.3c0,0,0,0,0,0
	c0,0,0,0,0,0l0-0.1v-0.1c0-0.2-0.1-0.4-0.2-0.4c-0.1,0-0.2-0.1-0.4-0.1h-0.3V38h-0.3v-1.9L124.9,36.2L124.9,36.2z M123.9,36.1
	c-0.3,0.3-0.4,0.6-0.4,1c0,0.4,0.1,0.7,0.4,1c0.3,0.3,0.6,0.4,1,0.4c0.4,0,0.8-0.1,1-0.4c0.3-0.3,0.4-0.6,0.4-1c0-0.4-0.1-0.7-0.4-1
	c-0.3-0.3-0.6-0.4-1-0.4C124.5,35.6,124.1,35.8,123.9,36.1 M126.1,38.3c-0.3,0.3-0.7,0.5-1.2,0.5c-0.5,0-0.9-0.2-1.2-0.5
	c-0.3-0.3-0.5-0.7-0.5-1.2c0-0.5,0.2-0.9,0.5-1.2c0.3-0.3,0.7-0.5,1.2-0.5c0.5,0,0.9,0.2,1.2,0.5c0.3,0.3,0.5,0.7,0.5,1.2
	C126.6,37.6,126.4,38,126.1,38.3"/>
</svg>
