<?xml version="1.0" encoding="utf-8"?>
<!-- Generator: Adobe Illustrator 22.1.0, SVG Export Plug-In . SVG Version: 6.00 Build 0)  -->
<svg version="1.1" id="Ebene_1" xmlns="http://www.w3.org/2000/svg" xmlns:xlink="http://www.w3.org/1999/xlink" x="0px" y="0px"
	 viewBox="0 0 135 90" style="enable-background:new 0 0 135 90;" xml:space="preserve">
<style type="text/css">
	.st0{fill:#898989;}
	.st1{fill:#FFFFFF;}
	.st2{fill:#0E1011;}
</style>
<title>logo-aether</title>
<path d="M25.3,55.6c0.1-0.2,0.3-0.4,1-0.6c0,0,24.6-8.3,57.2-6.7c0,0,1.9-0.1,1.4,0.7c-0.3,0.5-0.8,0.5-1.9,0.6c0,0-0.4,0.1-1.7,0
	c0,0,3.3,1.3-9.9,1c0,0,1.2,1.2-3.7,0.8c0,0-13.5-0.6-40.9,4.3C26.8,55.8,24.7,56.3,25.3,55.6L25.3,55.6z"/>
<path d="M53,28.6c0,0-1.6-2.1-1.4,0.3c0,0,0.2,4.9-0.6,11.1c-0.1-0.2-0.2-0.5-0.4-0.7c0,0-1.4-1.9-3-1.4c0,0-2,0.6-3.2,3.7
	c0,0-0.8,2.1-0.6,3.7c0,0-0.1,4.2,5,1.2c0,0,0.5-0.3,1.2-1c-0.1,0.5-0.3,0.9-0.3,1.4c0,0-0.2,1.1,0.3,1.4c0.2,0.1,0.4,0,0.8-1.1
	c0,0,3.6-9.3,3.8-13.1C54.7,34.1,56,32.2,53,28.6L53,28.6z M46.7,45.3c0,0-0.4-0.2-0.4-1.4c0,0,0.1-2,1.4-3.5c0,0,0.4-0.5,0.7-0.5
	c0.1,0,0.3,0.1,0.3,0.7c0,0.1-0.4,0.2-0.2,0.6c0,0,0.7,1.8,2.2,1c-0.1,0.4-0.1,0.7-0.2,1.1C49.8,44.4,48.2,46.3,46.7,45.3L46.7,45.3
	z M65.6,37.8c0,0,2.9,3.1,2.8,5.3c0,0-0.4,3-5.4,2.9c0,0-1.2-0.2,0-1c0,0,3.3-1.1,1.1-5c0,0-2,2.4-3.3,3.7l0,0
	c-3.8,3.7-4.6,2.4-4.6,2.4c-1.5-2.1-0.4-6.6-0.4-6.6c0.6-2.4,1.8-1.6,1.8-1.6c1.8,0.3,1.1,1.9,1.1,1.9c-0.2,1.2-0.5,1.1-0.5,1.1
	c-0.6,0.5-0.7,2.4-0.7,2.4c0.2,1.1-0.8,2.6,2.1,0.2c0.7-0.7,4.1-4.5,4.6-6C64.2,37.5,64.8,36,65.6,37.8L65.6,37.8z M61.2,33.1
	c-0.1,0.5-0.3,0.9-0.6,1.1c-0.5,0.4-1.5,1-1.8,0.9s0-1.1,0.1-1.4c0-0.3,0-0.6,0.1-0.9c0.1-0.7,0.7-1.2,1.3-1.2
	C60.8,31.7,61.3,32.4,61.2,33.1L61.2,33.1z M82,37.2c0.9-1.2,1.5-0.6,1.5-0.6c0.1,0,0.3,0,0.3,0c1.2-0.1,0.2,1.1,0.2,1.1
	c-1,1.3-1.9,3.8-1.9,3.8c-0.2,0.6-0.4,1.5-0.4,1.5c-0.4,1.5,1.2,0.4,1.2,0.4c0.2-0.2,0.4-0.4,0.5-0.5c0.2-0.2,0.3-0.2,0.3-0.2
	c0.3,0-0.2-1.8-0.2-1.8c-0.2-0.7-0.2-0.7-0.2-0.7c-0.2-0.8,0.3-1.1,0.3-1.1c0.5-0.3,0.9,0.5,0.9,0.5c0.4,0.7,0.8,2.5,0.8,2.5
	c0.4,1.6-0.8,1.5-0.8,1.5c-0.5,0.1-1.3,0.9-1.3,0.9c-1.3,1.1-3.1,1.2-3.1,1.2c-1.8,0.1-1.7-1.5-1.7-1.5C78.5,42.3,82,37.2,82,37.2
	L82,37.2z M74.7,39.4c0.8,0.6,2.2,1.9,2,3.2c0,0-0.4,3-5.4,2.9c0,0-0.5,0-0.6-0.4c0-0.2,0.1-0.4,0.5-0.6c0,0,3.3-1.1,1.1-5
	c0,0-0.8,0.6-1.9,1.5c0,0-0.8,0.9-0.7-0.4c0,0,0.1-0.7,0.4-0.9c0,0,1.8-1.1,2.4-2.7c0.3-1.1,1.9-2,2.1-1.1c0.1,0.4-0.4,0.7-0.6,1
	C73.4,37.6,74.1,39.1,74.7,39.4L74.7,39.4L74.7,39.4z M42.5,45.5C42.5,45.5,42.5,45.4,42.5,45.5c-0.2-0.2-0.9,0.1-1.6,0.5
	c-0.1,0.1-0.2,0.1-0.3,0.2c-0.2,0.1-0.5,0.3-0.6,0.4c0,0-0.4,0.3-0.4-0.4l0,0l0,0c0-0.2,0-0.4,0.1-0.6c0,0,0.6-2.3,0.8-3
	c0,0,0.1-0.6,0.4-1.3c0,0,1-1-0.8-1.4c0,0-0.9-2.1-1.8,1.2l0,0c-0.1-0.3-0.4-0.9-0.9-1.1c-0.1-0.1-0.2-0.1-0.4-0.1
	c-0.1,0-0.1,0-0.3,0c0,0-0.9-0.3-1.8,0.9c-1,1.1-3.9,4.6-3.2,7.4c0,0,0.4,1.5,1.7,1.5c0,0,1.8,0,3.1-1.2c0,0,0.4-0.4,0.8-0.9
	c0,0.2,0,0.4,0.1,0.6v0.1c0,0,0,0.3,0.3,0.6c0.2,0.2,0.5,0.3,1,0.3c0.1,0,0.1,0,0.2,0c0,0,1.9-0.5,1.8-1.2c0-0.4,0.1-0.5,0.1-0.5
	s0.1-0.1,0.1-0.2C41,47.1,42.5,46.1,42.5,45.5L42.5,45.5z M37.1,46.6c-0.2,0.2-0.3,0.5-0.7,0.8c0,0-2,1.2-2-0.5c0,0,0.1-1,0.4-1.9
	c0,0,0.9-2.4,2.4-3.8c0.1-0.1,0.2-0.1,0.3,0c0.2,0.3,0.2,0.6,0.4,0.9c0,0.1,0.1,0.1,0.1,0.2c-0.2,0.9-0.6,2.6-0.7,3.9
	C37.3,46.3,37.2,46.4,37.1,46.6L37.1,46.6z M22.8,36.9c0.4,0.7-0.1,1.9-0.1,1.9c-2.3,4.6-5.1,15.6-5.7,17.8l0,0c0,0,0,0,0,0.1
	c-0.1,0.2-0.1,0.3-0.1,0.3c0,0.2-0.1,0.3-0.1,0.5c-0.1,0.3-0.1,0.8-0.1,1.3l0,0c0,0.6,0,1.2-0.2,1.3c-0.5,0.2-0.8-0.4-0.9-1.2
	c-0.5-0.1-0.9-0.8-0.9-0.8c-1.8-1.2-0.5-4.6-0.5-4.6c1.2-4.9,7.4-15.4,7.4-15.4C22.4,36.8,22.7,36.6,22.8,36.9L22.8,36.9z
	 M32.2,54.4c1,1.4,1.7,2.3,1.5,2.5C33,57.5,30,55.1,30,55.1c-5.2-4.3-7.5-9.8-8-11.2c-0.1-0.2,0.1-0.4,0.1-0.4
	c0.2-0.2,0.5-0.3,1.2-0.4l0,0C23,43,22.8,43,22.9,42.8s0.8-0.2,0.8-0.2c0.6,0,1-0.1,1-0.1c0.8-0.1,1.3-0.2,1.3-0.2
	c1.8-0.3,2.5-1.1,2.5-1.1c1.8-1.8-1.1-3.6-1.1-3.6c-7.2-4.2-13.1-2.2-13.1-2.2c-0.3,0.1-0.6,0.1-0.9,0c-0.8-0.3,0.6-1.3,0.6-1.3
	c3.6-3,5.5-2.1,5.5-2.1c7,0.5,10.1,4.1,10.1,4.1c2.4,2.6,1.8,4.6,1.5,5.2c-1.2,2.2-4,2.2-4,2.2c-0.4,0-0.8,0-1.2,0
	c0.3,0.4,0.6,1,0.6,1C26.9,46.4,32.2,54.4,32.2,54.4L32.2,54.4z M97.6,44.4c0,0,3.8,3.2-0.9,3c0,0-0.9,0.1-1.5-1.8
	c0,0-1.6-3.7-1.5-5.1c-0.2,0.2-1.1,1.3-1.6,2.5c-0.3,0.7-0.4,0.9-0.8,1.6c-0.2,0.3-0.5,0.6-0.7,0.8c-2.1,1.9-2.3-0.5-2.3-0.5
	c-0.4-2.1,0.7-5.5,0.7-5.5c0.8-2.3,1.9-1.4,1.9-1.4c1.6,0.4,1,2,1,2c-0.3,1.2-0.7,0.9-0.7,0.9c-0.4,0.3-0.5,0.8-0.5,1.2
	c0,0-0.2,1.3,0.4,0.3c0.4-0.9,1.3-2.4,1.9-2.9c0,0,0.9-1,1.5-0.2C94.5,39.2,96.8,43.9,97.6,44.4L97.6,44.4z"/>
<path d="M87.1,48.5c1,0.1,2.1,0.1,3.7,0.2c0.8,0.1,2.1,0.1,2.2,0.6c0.2,0.5-0.4,1-1.5,1.2c-0.6,0.1-0.9,0.2-1.4,0.2
	c-0.6,0-1.8,0-1.9-0.7c0-0.4-0.8-0.4-1.4-0.4c-1.1,0-1-0.4-0.7-0.7C86.2,48.6,86.5,48.5,87.1,48.5L87.1,48.5z"/>
<path d="M120.9,31.8c0-0.3-0.3-0.6-0.6-0.6h-18.1c-0.3,0-0.6,0.3-0.6,0.6v18.1c0,0.3,0.3,0.6,0.6,0.6h18.1c0.3,0,0.6-0.3,0.6-0.6
	V31.8z"/>
<path class="st0" d="M118.3,43.6c-0.3-0.7-0.4-1.6-0.4-2.3c-0.7,1.5-1.7,3.8-2.9,3.7c-0.7-0.1-0.7-1.3-0.6-2.5c-0.5,1-0.9,2-1.4,2.6
	c0,0,0,0.1-0.1,0.1c-0.1,0.2-0.4,0.5-0.7,0.6h-0.1c-0.1,0-0.2,0-0.3,0c-0.2-0.1-0.4-0.3-0.6-0.7c0-0.1-0.1-0.2-0.1-0.2
	c0-0.1,0-0.2-0.1-0.3c-0.2,0.3-0.4,0.6-0.7,0.9c-0.8,0.8-1.7,1.3-2.8,1.6c-1,0.3-2.2,0.5-3.1,0c-1-0.5-1.1-1.6-0.7-2.6
	c0.2-0.4,0.3-0.1,0.2,0.3c0,0.1,0,0.3-0.1,0.4c-0.1,2.4,3.7,1.3,4.8,0.7c0.8-0.4,1.1-0.8,1.5-1.2c0.5-0.5,0.9-1.4,1-2.2
	c0.2-1.8-2.1-1.8-3.1-1.8h-0.1c-0.1,0.3-0.3,0.7-0.4,1c-0.3,0.6-0.5,1.2-0.8,1.8c-0.2,0.5-0.6,1.2-0.9,1.7c-0.2,0.3-0.4,0.2-0.3-0.1
	c0-0.6,0.3-1.2,0.6-1.7c0.2-0.6,0.5-1.2,0.7-1.8c0.5-1.2,1-2.3,1.2-3.6c0.1-0.4,0.6-0.3,0.5,0.1c-0.1,0.4-0.2,0.9-0.3,1.3
	c0.3-0.5,0.7-0.9,1-1.5c0.3-0.5,1-1.9,0.1-2.3c-0.7-0.3-1.6,0.2-2.1,0.6c-0.6,0.5-1.2,1-1.7,1.8c-0.2,0.3-0.4,0.1-0.3-0.1
	c0.4-0.8,1.2-1.6,1.9-2.2c0.7-0.5,1.7-1.1,2.5-0.6c0.9,0.6,0.5,1.9,0.1,2.8c-0.4,0.8-0.9,1.5-1.4,2.2c1.1,0,2.3,0.1,2.9,1.1
	c0.1,0.1,0.1,0.2,0.2,0.3c0.3-0.7,0.5-1.3,0.8-1.7c0.8-1.7,1.2-2.5,2.2-4c0.1-0.2,0.4,0,0.2,0.2c-1.4,2.5-2.4,4.4-3,6.8
	c0,0.2-0.1,0.4-0.1,0.5l0,0c-0.1,0.4-0.1,1,0.1,1.4c0,0.1,0.1,0.1,0.1,0.2l0,0c0.3,0.2,0.6-0.2,0.7-0.4c0.4-0.5,0.8-1.1,1.1-1.8
	c0.5-1.1,1.1-2.2,1.4-3.4c0.1-0.4,0.5-0.3,0.5,0.1c0,0.7-0.2,1.4-0.3,2c-0.1,0.5-0.7,3.2,0.2,2.4c1-0.9,1.6-2.4,2.3-3.8
	c0.1-0.2,0.4-0.2,0.5,0.1c0.1,1,0.1,2,0.5,2.9C118.9,43.7,118.5,44,118.3,43.6z"/>
<path class="st1" d="M107.8,41.3c0.2-0.1,0.4-0.4,0.4-0.6v-0.4c0-0.4-0.2-1.1-1.2-1.1h-3.7v4.5h3.8c0.8,0,1.4-0.4,1.4-1v-0.5
	C108.3,41.8,108.1,41.5,107.8,41.3z M107.3,40.7c0,0.2-0.1,0.4-0.5,0.4c0,0-2.6,0-2.8,0c0-0.2,0-0.9,0-1.1c0.2,0,2.9,0,2.9,0
	c0.1,0,0.5,0,0.5,0.3L107.3,40.7L107.3,40.7z M104,41.8c0.2,0,2.8,0,2.8,0c0.5,0,0.7,0.1,0.7,0.5v0.3c0,0.3-0.1,0.4-0.6,0.4
	c0,0-2.7,0-2.9,0C104,42.8,104,42,104,41.8z M110.1,43h3.3v0.7h-4.1v-4.5h0.8C110.1,39.2,110.1,43,110.1,43z M119.3,39.3v3.3
	c0,1-0.6,1.2-1.6,1.2h-2c-1,0-1.6-0.2-1.6-1.2v-3.3h0.8v3.3c0,0.3,0.1,0.5,0.8,0.5h2c0.7,0,0.8-0.2,0.8-0.5v-3.3H119.3z"/>
<g>
	<polygon class="st2" points="67.4,55.7 66.8,55.7 66.8,57.4 64.6,57.4 64.6,55.7 64.1,55.7 64.1,59.6 64.6,59.6 64.6,57.9 
		66.8,57.9 66.8,59.6 67.4,59.6 	"/>
	<path class="st2" d="M68.5,57.7c0,1,0.9,2,2.1,2c1.4,0,2.2-0.9,2.2-2c0-1.2-0.9-2.1-2.1-2.1C69.5,55.6,68.5,56.6,68.5,57.7
		L68.5,57.7z M69.2,57.7c0-0.9,0.7-1.6,1.6-1.6c0.8,0,1.4,0.7,1.4,1.6c0,0.9-0.7,1.4-1.4,1.4C69.8,59.1,69.2,58.6,69.2,57.7
		L69.2,57.7z"/>
	<polygon class="st2" points="76.6,55.7 73.2,55.7 73.2,56.3 74.7,56.3 74.7,59.6 75.2,59.6 75.2,56.3 76.6,56.3 	"/>
	<polygon class="st2" points="79.9,55.7 77.7,55.7 77.7,59.6 79.9,59.6 79.9,59.1 78.2,59.1 78.2,57.9 79.7,57.9 79.7,57.4 
		78.2,57.4 78.2,56.3 79.9,56.3 	"/>
	<polygon class="st2" points="81.6,55.7 81,55.7 81,59.6 83.4,59.6 83.4,59.1 81.6,59.1 	"/>
	<path class="st2" d="M86.2,56c-0.3-0.3-0.7-0.4-0.9-0.4c-0.8,0-1.2,0.5-1.2,1c0,1.2,1.7,1.2,1.7,2.1c0,0.1-0.3,0.5-0.7,0.5
		c-0.4,0-0.8-0.3-1-0.7v0.8c0.3,0.3,0.7,0.3,1,0.3c0.7,0,1.2-0.4,1.2-1c0-1.2-1.7-1.2-1.7-2c0-0.3,0.3-0.5,0.7-0.5
		c0.3,0,0.5,0.1,0.9,0.4V56L86.2,56z"/>
	<path class="st2" d="M92,57.7c-0.1,0.3-0.3,0.5-0.5,0.7L91,57.7c0.5-0.4,0.8-0.7,0.8-1c0-0.5-0.4-0.9-1-0.9c-0.5,0-0.9,0.4-0.9,0.9
		c0,0.4,0.1,0.7,0.4,0.9c-0.5,0.4-0.9,0.8-0.9,1.2c0,0.5,0.4,0.9,1,0.9c0.3,0,0.7-0.1,1.2-0.5l0.5,0.5h0.7L92,58.8
		c0.3-0.4,0.5-0.8,0.7-1L92,57.7L92,57.7z M91.1,58.7c-0.3,0.3-0.5,0.4-0.8,0.4s-0.5-0.1-0.5-0.4c0-0.3,0.3-0.5,0.8-0.8L91.1,58.7
		L91.1,58.7z M90.3,56.6c0-0.3,0.1-0.4,0.4-0.4s0.5,0.1,0.5,0.4c0,0.3-0.1,0.4-0.5,0.7C90.4,57.2,90.3,56.9,90.3,56.6L90.3,56.6z"/>
	<path class="st2" d="M95.6,55.7v3.9h0.7v-1.7h0.1c0.4,0,0.5,0.1,1,0.9l0.5,0.8h0.8c-0.4-0.4-0.4-0.5-0.7-0.8
		c-0.3-0.5-0.5-0.8-0.8-1c0.4-0.3,0.7-0.5,0.7-1c0-0.7-0.5-1-1.3-1L95.6,55.7L95.6,55.7z M96.3,56.3h0.3c0.7,0,0.8,0.1,0.8,0.5
		s-0.1,0.7-0.8,0.7h-0.3V56.3L96.3,56.3z"/>
	<polygon class="st2" points="101.9,55.7 99.7,55.7 99.7,59.6 101.9,59.6 101.9,59.1 100.2,59.1 100.2,57.9 101.9,57.9 101.9,57.4 
		100.2,57.4 100.2,56.3 101.9,56.3 	"/>
	<path class="st2" d="M104.9,56c-0.3-0.3-0.5-0.4-0.9-0.4c-0.7,0-1.2,0.5-1.2,1c0,1.2,1.7,1.2,1.7,2.1c0,0.1-0.1,0.5-0.7,0.5
		c-0.4,0-0.7-0.3-1-0.7v0.8c0.4,0.3,0.8,0.3,1.2,0.3c0.7,0,1-0.4,1-1c0-1.2-1.7-1.2-1.7-2c0-0.3,0.3-0.5,0.7-0.5
		c0.3,0,0.7,0.1,0.9,0.4V56L104.9,56z"/>
	<path class="st2" d="M106,57.7c0,1,0.8,2,2.1,2c1.3,0,2.1-0.9,2.1-2c0-1.2-0.8-2.1-2.1-2.1C106.8,55.6,106,56.6,106,57.7L106,57.7z
		 M106.6,57.7c0-0.9,0.7-1.6,1.6-1.6s1.6,0.7,1.6,1.6c0,0.9-0.7,1.4-1.6,1.4C107.2,59.1,106.6,58.6,106.6,57.7L106.6,57.7z"/>
	<path class="st2" d="M111.4,55.7v3.9h0.7v-1.7h0.3c0.3,0,0.5,0.1,1,0.9l0.5,0.8h0.7c-0.3-0.4-0.4-0.5-0.5-0.8
		c-0.4-0.5-0.5-0.8-0.9-1c0.4-0.3,0.7-0.5,0.7-1c0-0.7-0.5-1-1.3-1L111.4,55.7L111.4,55.7z M112,56.3h0.4c0.5,0,0.7,0.1,0.7,0.5
		s-0.1,0.7-0.7,0.7H112V56.3L112,56.3z"/>
	<polygon class="st2" points="117.9,55.7 114.5,55.7 114.5,56.3 115.9,56.3 115.9,59.6 116.5,59.6 116.5,56.3 117.9,56.3 	"/>
	<path class="st2" d="M120.8,56c-0.3-0.3-0.5-0.4-0.9-0.4c-0.7,0-1.2,0.5-1.2,1c0,1.2,1.7,1.2,1.7,2.1c0,0.1-0.1,0.5-0.7,0.5
		c-0.4,0-0.8-0.3-1-0.7v0.8c0.4,0.3,0.7,0.3,1.2,0.3c0.7,0,1-0.4,1-1c0-1.2-1.7-1.2-1.7-2c0-0.3,0.3-0.5,0.7-0.5
		c0.3,0,0.5,0.1,0.9,0.4V56L120.8,56z"/>
</g>
</svg>
