<svg id="Ebene_1" data-name="Ebene 1" xmlns="http://www.w3.org/2000/svg" viewBox="0 0 135 90"><title>logo-british-museum</title><path d="M11.11,33.05l0,2.71h.54l0,0a4.32,4.32,0,0,1,.56-1.61,1.41,1.41,0,0,1,1.26-.46h2.09v7.45a4.63,4.63,0,0,1-.17,1.84c-.15.3-.46.39-1.13.39h-.61v.57H19.1v-.57h-.59c-.68,0-1-.09-1.14-.41a5.33,5.33,0,0,1-.16-2V33.64H19.1a2,2,0,0,1,1.31.28,2.82,2.82,0,0,1,.75,1.79v0h.53l-.06-2.71Z"/><path d="M29.05,43.1a4.11,4.11,0,0,1-.13-1.55V39.33a2.35,2.35,0,0,0-.56-1.71A2.23,2.23,0,0,0,26.69,37a3.15,3.15,0,0,0-2.29,1.25v-5.4h-.19a7,7,0,0,1-2.07.34h-.06v.56h.06c.53,0,.77.1.88.3a2.54,2.54,0,0,1,.13,1.15v6.31A4.14,4.14,0,0,1,23,43.11c-.12.19-.37.21-.94.21H22v.57h3.4v-.57h-.06c-.51,0-.73,0-.84-.23a4.49,4.49,0,0,1-.12-1.54V39.13c0-.09.26-.32.32-.39s.24-.26.37-.38a2.32,2.32,0,0,1,.81-.53,1.43,1.43,0,0,1,1.18.07c.57.31.59,1.16.59,1.73v1.92a4.11,4.11,0,0,1-.13,1.55c-.11.2-.36.22-.93.22h-.06v.57H30v-.57H30C29.41,43.32,29.16,43.3,29.05,43.1Z"/><path d="M35.93,42.35A2.1,2.1,0,0,1,34,43.51a1.77,1.77,0,0,1-1.79-1.24,5.26,5.26,0,0,1-.28-1.88c0-.25,0-.49,0-.7h4.53v-.06A2.69,2.69,0,0,0,33.71,37a3,3,0,0,0-2.31,1,3.84,3.84,0,0,0-.91,2.56,3.47,3.47,0,0,0,1.1,2.66,3.31,3.31,0,0,0,2.19.85,2.68,2.68,0,0,0,2.69-1.76l0-.07H36Zm-2.28-4.74A1.27,1.27,0,0,1,35,38.91v0a.53.53,0,0,1,0,.2H32A1.68,1.68,0,0,1,33.65,37.61Z"/><path d="M52.57,39.25c0-3.12-2.74-4.19-5.51-4.34,1.1-.15,4.61-.7,4.61-3.88,0-4.15-5.83-4-6.78-4-1.42,0-4.21.1-6,.18v.67c2.48,0,2.72-.12,2.72,3.5v8c0,3.2,0,3.75-2.1,3.75H38.9v.65h7.57C49.37,43.8,52.57,42.9,52.57,39.25ZM44,27.83c3.32-.3,5.07.33,5.07,3.33s-1.9,3.52-5.07,3.45Zm0,11V35.31c4.72-.25,5.87,1.25,5.87,3.92,0,1.38-.2,3.9-3.87,3.9C44,43.13,44,42.65,44,38.85Z"/><path d="M59.1,43.15h-.35c-1.47,0-1.47-.22-1.47-2.77V38.13c0-2.55,1.72-3.75,2.42-3.75.4,0,.57.38.7.65a.94.94,0,0,0,.87.75.84.84,0,0,0,.83-.85,1.68,1.68,0,0,0-1.75-1.52A3.79,3.79,0,0,0,57.15,36a7.62,7.62,0,0,0-.35-2.55l-.17.05a19.62,19.62,0,0,1-2.83.67v.67c1.73,0,1.73,0,1.73,2.76v2.82c0,2.77,0,2.77-1.73,2.77v.65h5.3Z"/><path d="M65,29.61a1.3,1.3,0,1,0-1.28-1.3A1.31,1.31,0,0,0,65,29.61Z"/><path d="M67.85,43.15h-.37c-1.55,0-1.38-.6-1.38-2.77v-7h-.25a17.89,17.89,0,0,1-3.27.65v.67c1.75,0,1.77,0,1.77,2.75v3.87c0,1.75-.35,1.8-1.47,1.8h-.43v.65h5.4Z"/><path d="M75.25,42.58l-.5-.36a1.74,1.74,0,0,1-1.39,1c-1.5,0-1.5-1.41-1.5-2.95V34.73H74.8v-.68H71.86V30.68h-.51C71,33.15,69.76,34,68.66,34.06v.67h1.45V40c0,1.82,0,2.35.37,2.95a2.48,2.48,0,0,0,2.18,1.22A2.86,2.86,0,0,0,75.25,42.58Z"/><path d="M78.26,29.61A1.3,1.3,0,1,0,77,28.31,1.3,1.3,0,0,0,78.26,29.61Z"/><path d="M79.39,40.28V33.41h-.25a19.06,19.06,0,0,1-3.4.65v.67c1.75,0,1.9,0,1.9,2.75v3.67c0,1.75-.35,2-1.47,2h-.43v.65h5.4v-.65h-.38C79.21,43.15,79.39,42.45,79.39,40.28Z"/><path d="M83.56,43.14A3.16,3.16,0,0,0,86,44.2a2.79,2.79,0,0,0,3-3c0-2.17-1.68-2.94-3-3.54-1.15-.53-2.35-1.08-2.35-2.23a1.45,1.45,0,0,1,1.62-1.4c1.6,0,2.35,1.65,2.55,2.6h.5v-3.1h-.45a4.35,4.35,0,0,1-.47.88,2.74,2.74,0,0,0-2.18-1.05,2.5,2.5,0,0,0-2.67,2.77c0,1.82,1.62,2.62,2.82,3.22s2.43,1.18,2.43,2.48A1.66,1.66,0,0,1,86,43.55a3.1,3.1,0,0,1-2.9-2.72h-.53V44.1h.48A2.57,2.57,0,0,1,83.56,43.14Z"/><path d="M77.4,57.35c-1.15-.53-2.35-1.08-2.35-2.22a1.45,1.45,0,0,1,1.63-1.41c1.6,0,2.34,1.65,2.54,2.61h.51v-3.1h-.45a4.8,4.8,0,0,1-.48.87,2.73,2.73,0,0,0-2.17-1.05A2.5,2.5,0,0,0,74,55.82c0,1.83,1.63,2.63,2.83,3.23s2.42,1.17,2.42,2.47a1.67,1.67,0,0,1-1.85,1.68,3.11,3.11,0,0,1-2.9-2.73h-.52v3.28h.47a2.64,2.64,0,0,1,.51-1,3.16,3.16,0,0,0,2.47,1.1,2.87,2.87,0,0,0,3-3C80.4,58.72,78.73,58,77.4,57.35Z"/><path d="M95,43.15c-1.58,0-1.58-.2-1.58-2.87v-3.8c.8-1,1.9-2.15,3-2.2,1.45-.07,2.17.67,2.17,3v3c0,2.75,0,2.87-1.72,2.87v.65h5.17v-.65c-1.7,0-1.7-.12-1.7-2.87V36.86c0-2.28-1.12-3.45-3.34-3.45a4.73,4.73,0,0,0-3.63,2.05V27h-.17a10.77,10.77,0,0,1-3.23.52v.67c1.65,0,1.65.58,1.65,2.33v9.75c0,2.77,0,2.87-1.75,2.87v.65H95Z"/><path d="M58.29,59.05V51.13c0-3.38.05-3.58,2.22-3.58h.62V46.9H56L50,60.44l-6-13.54h-5v.65h.45c2.17,0,2.15.13,2.15,3.48v8.34c0,2.8-1.08,3.28-2.6,3.43v.65h5.89V62.8c-1.84-.18-2.59-1-2.59-3.28v-11l6.54,14.89h.58l6.55-14.61V59.05c0,3.2,0,3.75-2.1,3.75h-.58v.65h7.92V62.8h-.75C58.29,62.8,58.29,62.25,58.29,59.05Z"/><path d="M71,59.89V53.45h-3.5v.65c1.75,0,1.75.1,1.75,2.87v2.34A3.42,3.42,0,0,1,66,62.89C64,62.89,64,61.31,64,60.36V53.45h-3.4v.65c1.65,0,1.65.15,1.65,2.87V60.5c0,1,.2,3.35,3.1,3.35a4.48,4.48,0,0,0,3.83-2.29,5,5,0,0,0,.42,2.29h.18a6.94,6.94,0,0,1,2.67-.4v-.66C71,62.79,71,62.56,71,59.89Z"/><path d="M91.3,57a4.1,4.1,0,0,0-4.18-3.91c-2.82,0-4.87,2.38-4.87,5.47a5,5,0,0,0,5,5.33A4.08,4.08,0,0,0,91.3,61.2h-.58a3.3,3.3,0,0,1-3.17,2c-3.23,0-3.28-3.9-3.28-5.18,0-.42,0-.71,0-1.06ZM87,53.6a2.09,2.09,0,0,1,2.18,2.25,3.11,3.11,0,0,1,0,.5H84.37C84.47,55.7,84.8,53.6,87,53.6Z"/><path d="M102.36,59.9V53.45h-3.5v.66c1.75,0,1.75.1,1.75,2.87v2.33a3.41,3.41,0,0,1-3.25,3.58c-1.92,0-1.92-1.58-1.92-2.52V53.56L92,53.45v.66c1.65,0,1.65.15,1.65,2.87V60.5c0,1,.2,3.35,3.1,3.35a4.57,4.57,0,0,0,3.82-2.4,5.44,5.44,0,0,0,.42,2.4h.18a6.94,6.94,0,0,1,2.67-.4V62.8C102.36,62.8,102.36,62.57,102.36,59.9Z"/><path d="M122.35,59.92V56.3c0-2-.92-3.25-3.12-3.25a5.21,5.21,0,0,0-4,2.17c-.12-.8-.77-2.17-3-2.17a5.1,5.1,0,0,0-3.88,2.07,8.69,8.69,0,0,0-.32-2.07h-.32a23.58,23.58,0,0,1-2.75.58v.65c1.65,0,1.65.15,1.65,2.87v2.77c0,2.73,0,2.87-1.65,2.87v.66h5v-.66c-1.65,0-1.65-.17-1.65-2.87V56.16A4.12,4.12,0,0,1,111.58,54c2.22,0,2,2.05,2,3.15v2.76c0,2.68,0,2.87-1.65,2.87v.66h5v-.66c-1.65,0-1.65-.17-1.65-2.87V56.15A4.12,4.12,0,0,1,118.58,54c2,0,2,1.67,2,3v2.92c0,2.75,0,2.87-1.72,2.87v.66H124v-.66C122.35,62.79,122.35,62.6,122.35,59.92Z"/></svg>