<svg id="Ebene_1" data-name="Ebene 1" xmlns="http://www.w3.org/2000/svg" viewBox="0 0 135 90"><defs><style>.cls-1{fill-rule:evenodd;}</style></defs><title>logo-bosch</title><path class="cls-1" d="M31.92,37.63v3.9H23.85v-3.9a7.7,7.7,0,0,0-2.09,1.66,8.29,8.29,0,0,0,0,11.16,7.55,7.55,0,0,0,2.09,1.67v-4h8.07v4A8.1,8.1,0,0,0,34,50.45a8.43,8.43,0,0,0,2.15-5.59A8.31,8.31,0,0,0,34,39.3,8.1,8.1,0,0,0,31.92,37.63Zm-10.16,11a7.17,7.17,0,0,1,0-7.6,6.48,6.48,0,0,1,1-1.33l0,10.31A7.28,7.28,0,0,1,21.76,48.65ZM31.92,47H23.85V42.65h8.07ZM34,48.65A8.18,8.18,0,0,1,32.94,50l0-10.31A6.57,6.57,0,0,1,34,41.05a7.26,7.26,0,0,1,1.08,3.81A7.44,7.44,0,0,1,34,48.65Z"/><path class="cls-1" d="M34,35.4a11.25,11.25,0,1,0,5.15,9.46A11.31,11.31,0,0,0,34,35.4Zm0,17.53a10.11,10.11,0,0,1-12.27,0,10.08,10.08,0,0,1,0-16.06,10,10,0,0,1,6.16-2.11A10.13,10.13,0,0,1,34,52.93Z"/><path class="cls-1" d="M61.71,44.43a3.87,3.87,0,0,0,1.34-2.77,4.19,4.19,0,0,0-4.57-4.39H51.4V52.5h8a4.39,4.39,0,0,0,4.23-4.27A4.65,4.65,0,0,0,61.71,44.43Zm-6.79-2.58V40.57h3A1.35,1.35,0,0,1,59.06,42a1.39,1.39,0,0,1-1.46,1.42H54.92Zm2.81,7.55H54.92V46.3h2.93a1.56,1.56,0,1,1-.12,3.1Z"/><path class="cls-1" d="M71.55,37c-3.43,0-7,2.77-7,7.83,0,4.64,3.1,8,7,8s7-3.31,7-8C78.59,39.74,75,37,71.55,37Zm0,12.3c-2,0-3.51-2.09-3.51-4.59s2-4.19,3.51-4.19,3.52,1.76,3.52,4.19S73.56,49.27,71.55,49.27Z"/><path class="cls-1" d="M87.63,43.3c-2.5-.38-4-.71-4-1.85,0-.84.45-1.38,1.58-1.38a6.51,6.51,0,0,1,3.36,1.22l2.05-2.43a10.58,10.58,0,0,0-5.11-2.09c-3.56,0-5.78,2.13-5.78,4.89a4.3,4.3,0,0,0,3.9,4.47c2.18.33,3.72.8,3.72,1.89,0,.87-.91,1.34-1.92,1.34a5.13,5.13,0,0,1-3.81-1.85c-1.05,1.05-2.35,2.43-2.35,2.43a7.09,7.09,0,0,0,5.86,2.77c4,0,6.16-2.85,6.16-4.9A4.39,4.39,0,0,0,87.63,43.3Z"/><path class="cls-1" d="M99.55,40.49c1.17,0,1.73.63,2.73,1.76l2.89-2c-1.43-2.13-3.18-3.43-5.82-3.43-3.76,0-6.9,3.47-6.9,8s3.14,8,6.9,8c2.64,0,4.39-1.3,5.82-3.43l-2.89-2c-1,1.13-1.56,1.76-2.73,1.76-1.92,0-3.46-1.63-3.46-4.36S97.63,40.49,99.55,40.49Z"/><polygon class="cls-1" points="115.06 37.27 115.06 42.59 110.45 42.59 110.45 37.27 106.72 37.27 106.72 52.5 110.45 52.5 110.45 46.43 115.06 46.43 115.06 52.5 118.78 52.5 118.78 37.27 115.06 37.27"/></svg>