<?xml version="1.0" encoding="utf-8"?>
<!-- Generator: Adobe Illustrator 27.5.0, SVG Export Plug-In . SVG Version: 6.00 Build 0)  -->
<svg version="1.1" id="Ebene_1" xmlns="http://www.w3.org/2000/svg" xmlns:xlink="http://www.w3.org/1999/xlink" x="0px" y="0px"
	 viewBox="0 0 135 90" style="enable-background:new 0 0 135 90;" xml:space="preserve">
<style type="text/css">
	.st0{fill:#1D1D1B;}
</style>
<path class="st0" d="M40,43.4c0.1,2.3,0,4.6-0.1,6.9c-0.1,1.1-0.2,2.2-0.5,3.2c-0.3,1.1-0.6,2.1-1.1,3.1c-0.3,0.6-0.7,1.1-1.2,1.7
	c-0.7,0.9-1.6,1.6-2.6,2.1c-0.8,0.5-1.7,0.8-2.5,1.1c-0.6,0.2-1.2,0.3-1.8,0.4c-0.5,0.1-1.1,0.1-1.6,0.2c-0.6,0.1-1.3,0.1-1.9,0.1
	c-1.6,0.1-3.1,0.1-4.7,0c-0.7,0-1.3,0-2-0.1c-0.6,0-1.2-0.1-1.7-0.1c-0.4,0-0.8-0.1-1.2-0.1c-0.3,0-0.7-0.1-1-0.2
	c-0.4-0.1-0.9-0.2-1.3-0.3c-0.3-0.1-0.6-0.2-0.9-0.3c-0.6-0.2-1.2-0.5-1.8-0.9c-0.4-0.2-0.8-0.5-1.2-0.9c-0.3-0.3-0.6-0.5-0.9-0.8
	c-0.6-0.7-1.1-1.3-1.5-2.1c-0.4-0.6-0.6-1.3-0.9-2c-0.1-0.4-0.3-0.8-0.3-1.3c0-0.2,0-0.3-0.1-0.5c0,0,0-0.1,0-0.1
	c0-0.4-0.1-0.8-0.2-1.1c0-0.7-0.2-1.5-0.2-2.2c-0.2-1.8-0.2-3.7-0.1-5.5c0-1.3,0.2-2.7,0.3-4c0-0.4,0.1-0.7,0.2-1.1
	c0-0.4,0.1-0.7,0.2-1.1c0.1-0.4,0.2-0.7,0.3-1.1c0.6-2.1,1.7-3.8,3.4-5.1c1.2-0.9,2.5-1.5,3.9-1.9c0.9-0.2,1.8-0.4,2.8-0.5
	c2.3-0.3,4.6-0.3,7-0.3c1.2,0,2.5,0.1,3.7,0.2c2,0.1,4,0.6,5.8,1.5c0.8,0.4,1.5,0.9,2.2,1.5c1.2,1.1,2,2.4,2.6,3.9
	c0.3,0.7,0.5,1.4,0.6,2.1c0.1,0.6,0.2,1.2,0.3,1.8c0,0,0,0.1,0,0.1c0.1,0.8,0.2,1.6,0.2,2.4c0,0.3,0,0.5,0,0.8
	C39.9,43.2,39.9,43.3,40,43.4z M12.8,45.8c0,2.1,0,4.1,0,6.2c0,0.4,0,0.4,0.4,0.4c0.8,0,1.5,0,2.3,0c0.5,0,0.5,0,0.5-0.5
	c0-3.2,0-6.4,0-9.5c0-0.4,0-0.4,0.4-0.4c2,0,4,0,6,0c0.6,0,1.2,0.2,1.6,0.7c0.4,0.4,0.5,1,0.5,1.5c0,2.6,0,5.2,0,7.8
	c0,0.1,0,0.2,0,0.2c0,0.2,0.1,0.3,0.3,0.3c0.9,0,1.8,0,2.7,0c0.2,0,0.3-0.1,0.3-0.3c0-0.1,0-0.1,0-0.2c0-3,0-6.1,0-9.1
	c0-0.2,0-0.5-0.1-0.7c-0.4-1.7-1.9-3-3.7-3c-3.5,0-7.1,0-10.6,0c-0.1,0-0.2,0-0.3,0c-0.2,0-0.2,0.1-0.3,0.2c0,0.1,0,0.2,0,0.3
	C12.8,41.7,12.8,43.8,12.8,45.8z M33.5,45.9c0-2,0-4.1,0-6.1c0-0.1,0-0.2,0-0.2c0-0.2-0.1-0.3-0.3-0.3c-0.9,0-1.8,0-2.7,0
	c-0.2,0-0.3,0.1-0.3,0.3c0,0.1,0,0.2,0,0.2c0,4.1,0,8.1,0,12.2c0,0.1,0,0.1,0,0.2c0,0.3,0,0.4,0.4,0.4c0.4,0,0.8,0,1.2,0
	c0.4,0,0.9,0,1.3,0c0.3,0,0.3-0.1,0.3-0.3c0-0.1,0-0.2,0-0.2C33.5,49.9,33.5,47.9,33.5,45.9z M22,48.4c0-1.2,0-2.5,0-3.7
	c0-0.4,0-0.4-0.4-0.4c-0.9,0-1.7,0-2.6,0c-0.3,0-0.4,0-0.4,0.4c0,2.5,0,4.9,0,7.4c0,0.4,0,0.4,0.4,0.4c0.9,0,1.7,0,2.6,0
	c0.1,0,0.1,0,0.2,0c0.1,0,0.2-0.1,0.2-0.2c0-0.1,0-0.2,0-0.3C22,50.8,22,49.6,22,48.4z"/>
<path class="st0" d="M108.5,41.7c-0.3,0-0.5,0-0.7,0.1c-0.6,0.1-0.9,0.5-0.9,1.2c0,0.8,0,1.5,0,2.3c0,1.3,0,2.6,0,3.9
	c0,0.7,0,1.3,0,2c0,0.2,0,0.2-0.3,0.2c-0.8,0-1.5,0-2.3,0c-0.4,0-0.4,0-0.4-0.5c0-0.7,0-1.4,0-2.2c0-1.3,0-2.6,0-3.9
	c0-0.7,0-1.5,0-2.2c0-0.3,0-0.7,0.1-1c0.1-0.3,0.2-0.6,0.4-0.9c0.5-0.9,1.4-1.2,2.3-1.4c0.4-0.1,0.8-0.1,1.1-0.1
	c0.3,0,0.5,0.1,0.8,0c0,0,0,0,0.1,0c0,0,0.1,0,0.1,0c0.4,0,0.8,0,1.3,0c0.9,0.1,1.7,0.3,2.5,0.7c0,0,0.1,0.1,0.1,0c0,0,0.1,0,0.1,0
	c0.1,0,0.1,0,0.2,0c0.1,0,0.1,0,0.2-0.1c1-0.5,2.1-0.6,3.1-0.7c0.6,0,1.2,0,1.7,0.1c0.9,0.1,1.7,0.4,2.4,0.9c0.7,0.5,1,1.3,1.1,2.1
	c0.1,0.6,0.1,1.3,0.1,1.9c0,2.2,0,4.4,0,6.6c0,0.1,0,0.3,0,0.4c0,0,0,0.1,0,0.1c0,0.1,0,0.1-0.1,0.1c-0.8,0-1.6,0-2.5,0
	c-0.4,0-0.4,0-0.4-0.4c0-2.4,0-4.8,0-7.1c0-0.5-0.1-1.1-0.2-1.6c0-0.1-0.1-0.2-0.2-0.3c-0.3-0.3-0.7-0.3-1.1-0.4c-0.1,0-0.2,0-0.3,0
	c-0.2-0.1-0.5-0.1-0.7,0c-0.3,0-0.6,0-0.8,0.1c-0.6,0.1-0.9,0.4-1,1c0,0.1,0,0.3,0,0.5c0,0.9,0,1.8,0,2.7c0,1.7,0,3.4,0,5
	c0,0.1,0,0.2,0,0.2c0,0.2-0.1,0.2-0.2,0.2c-0.8,0-1.5,0-2.3,0c-0.5,0-0.5,0-0.5-0.5c0-2.5,0-5.1,0-7.6c0-0.2,0-0.4,0-0.6
	c-0.1-0.5-0.4-0.8-0.9-0.9c-0.3-0.1-0.6-0.1-0.9-0.1C109,41.6,108.8,41.6,108.5,41.7z"/>
<path class="st0" d="M81.6,43.7c0,0,0.1,0,0.1,0c0,0,0.1,0,0.1,0c0.1-0.4-0.1-0.8-0.2-1.2c-0.1-0.4-0.5-0.6-0.9-0.7
	c-0.4-0.1-0.8-0.2-1.2-0.2c-0.4-0.1-0.8,0-1.2-0.1c-0.1,0-0.1,0-0.1,0.1c-0.8,0-1.6,0.2-2.4,0.4c-0.5,0.1-1,0.2-1.4,0.4
	c-0.1,0-0.2,0-0.3,0c-0.1,0-0.2-0.1-0.1-0.2c0-0.7,0-1.4,0-2.2c0-0.1,0-0.2,0.2-0.3c0.4-0.2,0.8-0.3,1.2-0.4c1-0.2,1.9-0.3,2.9-0.4
	c0.5,0,1,0,1.6,0c0.7,0,1.4,0.1,2.1,0.4c0.9,0.4,1.6,0.9,2.1,1.7c0.3,0.4,0.4,0.8,0.6,1.3c0.3,0.9,0.3,1.7,0.3,2.6
	c0,1,0,1.9-0.1,2.9c-0.2,1.1-0.6,2.1-1.6,2.8c-0.4,0.3-0.9,0.5-1.4,0.6c-0.3,0.1-0.5,0.1-0.8,0.2c-0.1-0.1-0.2-0.1-0.3,0
	c-1.1,0.1-2.1,0.1-3.2,0.1c-0.1-0.1-0.3-0.1-0.4,0c-0.6-0.1-1.2-0.2-1.7-0.4c-0.4-0.1-0.7-0.3-1.1-0.6c-0.3-0.3-0.7-0.6-0.9-1
	c-0.2-0.4-0.4-0.9-0.4-1.3c-0.1-0.7,0-1.4,0.1-2c0-0.3,0.1-0.5,0.3-0.7c0.5-0.8,1.3-1.2,2.2-1.5c0.6-0.2,1.2-0.3,1.8-0.3
	c0.1,0,0.3,0,0.4,0c0.1,0,0.2,0,0.3,0c0.1,0,0.3,0,0.4,0c0.6,0,1.3,0,1.9,0c0.2,0.1,0.4,0,0.5,0c0.1,0,0.3,0,0.4,0
	C81.4,43.7,81.5,43.7,81.6,43.7z M79.2,49.2c0.3,0,0.5,0.1,0.8-0.1c0.4,0,0.8-0.1,1.1-0.3c0.3-0.1,0.5-0.4,0.6-0.7
	c0.2-0.6,0.2-1.3,0.2-1.9c0-0.1-0.1-0.2-0.2-0.2c-0.3,0-0.6-0.1-0.9-0.1C80,46,79.2,46,78.5,46c-0.2,0-0.4,0-0.5,0.1
	c-0.1,0-0.1,0-0.2,0c-0.1,0-0.3,0-0.4,0.1c-0.3,0-0.7,0.1-1,0.3c-0.4,0.2-0.7,0.6-0.7,1.1c0,0,0,0.1,0,0.1c0,0.1,0,0.3,0.1,0.4
	c0.1,0.4,0.4,0.8,0.8,1c0.3,0.1,0.6,0.2,1,0.2c0.2,0.1,0.4,0.1,0.7,0.1C78.5,49.2,78.8,49.2,79.2,49.2z"/>
<path class="st0" d="M95.5,39.3c0.2,0,0.5,0.1,0.7,0.1c0.1,0.1,0.1,0.1,0.2,0c0.7,0.1,1.4,0.4,2,0.8c1,0.7,1.6,1.7,1.8,2.9
	c0.2,1.2,0.3,2.3,0.1,3.5c0,0.4-0.1,0.8-0.2,1.2c-0.2,0.7-0.5,1.4-1,2c-0.6,0.7-1.4,1.2-2.3,1.4c-0.6,0.1-1.1,0.3-1.7,0.3
	c-0.6,0-1.3,0-1.9,0c-0.6,0-1.1-0.1-1.7-0.2c-0.5-0.1-0.9-0.3-1.3-0.4c-0.1,0-0.3-0.1-0.4-0.2c-0.1-0.1-0.3-0.2-0.4-0.3
	c-0.6-0.5-1-1.1-1.3-1.8c-0.2-0.4-0.3-0.8-0.4-1.2c-0.1-0.4-0.1-0.8-0.1-1.3c0-0.8,0-1.6,0.1-2.4c0-0.5,0.1-0.9,0.2-1.3
	c0.3-1,0.8-1.9,1.6-2.4c0.7-0.5,1.5-0.7,2.3-0.9c1-0.1,2.1-0.1,3.1-0.1C95.3,39.3,95.4,39.3,95.5,39.3z M93,41.7
	c-0.1,0-0.3,0.1-0.4,0.1c-0.4,0.1-0.7,0.2-1,0.5c-0.5,0.5-0.7,1.1-0.8,1.7c-0.1,0.7-0.1,1.4-0.1,2.1c0,0.5,0.1,1,0.2,1.5
	c0.2,0.5,0.4,0.9,0.9,1.1c0.4,0.2,0.7,0.3,1.2,0.4c0.6,0.1,1.2,0.1,1.7,0.1c0.4,0,0.8-0.1,1.1-0.2c0.8-0.3,1.3-0.8,1.5-1.7
	c0.1-0.5,0.1-0.9,0.1-1.4c0-0.8,0-1.5-0.1-2.3c-0.2-1-0.7-1.5-1.7-1.8c-0.8-0.2-1.6-0.2-2.4-0.2C93.2,41.7,93.1,41.6,93,41.7z"/>
<path class="st0" d="M62.8,39.4c0.2,0,0.2,0.1,0.2,0.2c0,0.1-0.1,0.2-0.2,0.3c-0.8,1-1.6,1.9-2.4,2.9c-0.6,0.7-1.1,1.4-1.7,2.1
	c0,0-0.1,0.1-0.1,0.1c-0.3,0.3-0.3,0.3,0,0.6c0.8,1,1.6,2,2.4,3.1c0.6,0.7,1.2,1.4,1.7,2.2c0,0.1,0.1,0.1,0.2,0.2
	c0.1,0.1,0.1,0.2,0,0.4c-1.2,0-2.4,0-3.6,0c-0.2-0.1-0.2-0.4-0.3-0.5c-0.3-0.4-0.6-0.8-0.9-1.2c-0.5-0.7-1-1.4-1.5-2
	c0,0-0.1-0.1-0.1-0.1c-0.1-0.1-0.1-0.1-0.2,0c-0.1,0.1-0.1,0.1-0.2,0.2c-0.8,1.1-1.6,2.1-2.5,3.2c-0.1,0.2-0.3,0.4-0.5,0.5
	c-0.2,0-0.3,0-0.5,0c-1,0-1.9,0-2.9,0c-0.2,0-0.2-0.2-0.1-0.3c0.2-0.3,0.4-0.7,0.8-1c0.2-0.1,0.2-0.4,0.4-0.6
	c0.3-0.3,0.6-0.7,0.9-1.1c0.2-0.3,0.5-0.6,0.7-1c0,0,0-0.1,0.1-0.1c0.5-0.5,0.8-1,1.3-1.6c0.4-0.5,0.4-0.4,0-0.9
	c-1.1-1.3-2.2-2.7-3.2-4c-0.2-0.3-0.5-0.6-0.7-0.9c0-0.1-0.1-0.1-0.1-0.2c-0.1-0.1-0.2-0.3-0.1-0.4c0.1-0.1,0.2,0,0.4-0.1
	c1,0,2,0,3.1,0c0.1,0,0.2,0,0.3,0.1c0.5,0.8,1.1,1.5,1.7,2.3c0.4,0.5,0.8,1.1,1.2,1.6c0.1,0,0.2-0.1,0.2-0.2c0.3-0.5,0.7-0.9,1-1.4
	c0.1-0.2,0.4-0.3,0.5-0.6c0.1-0.2,0.2-0.3,0.3-0.5c0.1-0.2,0.2-0.3,0.3-0.5c0.2-0.2,0.4-0.5,0.5-0.7c0.1-0.1,0.2-0.3,0.3-0.3
	C60.6,39.4,61.7,39.4,62.8,39.4z"/>
<path class="st0" d="M126.1,51.4c-0.6,0-0.5,0.1-0.5-0.5c0-1.3,0-2.6,0-3.9c0-2.4,0-4.8,0-7.2c0,0,0,0,0-0.1c0-0.3,0-0.3,0.3-0.3
	c0.8,0,1.6,0,2.5,0c0,0.1,0.1,0.1,0.2,0.1c0,0.2,0,0.5,0,0.7c0,3.4,0,6.8,0,10.2c0,0.3,0,0.6,0,0.8c0,0.1,0,0.2-0.2,0.2
	c0,0-0.1-0.1-0.1-0.1C127.6,51.4,126.9,51.4,126.1,51.4z"/>
<path class="st0" d="M66.5,51.4c-0.2-0.1-0.1-0.2-0.1-0.3c0-0.7,0-1.5,0-2.2c0-3.1,0-6.1,0-9.2c0-0.1,0-0.2,0-0.2c0,0,0,0,0.1,0
	c0,0,0,0,0.1-0.1c0,0,0,0,0.1,0c0.8,0,1.6,0,2.4,0c0,0,0,0,0.1,0c0.1,0.1,0.2,0,0.3,0.1c0,0.1,0,0.2,0,0.3c0,3.2,0,6.3,0,9.5
	c0,0.6,0,1.3,0,1.9c0,0.1,0,0.2-0.1,0.2C68.3,51.4,67.4,51.4,66.5,51.4z"/>
</svg>
