<svg id="Ebene_1" data-name="Ebene 1" xmlns="http://www.w3.org/2000/svg" viewBox="0 0 135 90"><title>logo-apple</title><path d="M86.1,57.85a25,25,0,0,1-2.48,4.47,22.81,22.81,0,0,1-3.2,3.86A6.23,6.23,0,0,1,76.31,68a10.3,10.3,0,0,1-3.8-.91,10.79,10.79,0,0,0-4.09-.91,11.18,11.18,0,0,0-4.2.91,11.18,11.18,0,0,1-3.63,1,5.85,5.85,0,0,1-4.21-1.86,23.67,23.67,0,0,1-3.35-4,27.71,27.71,0,0,1-3.53-7A25.7,25.7,0,0,1,48,46.78a15.32,15.32,0,0,1,2-8,11.75,11.75,0,0,1,4.21-4.25,11.35,11.35,0,0,1,5.68-1.61,13.38,13.38,0,0,1,4.4,1,14.14,14.14,0,0,0,3.49,1,20.87,20.87,0,0,0,3.87-1.2,12.81,12.81,0,0,1,5.26-.94q5.83.48,8.75,4.61a10.09,10.09,0,0,0-2,16.18,10.2,10.2,0,0,0,3.2,2.1c-.26.75-.53,1.46-.82,2.14ZM77.19,22.78a9.8,9.8,0,0,1-2.53,6.46c-2,2.38-4.48,3.75-7.14,3.53a6,6,0,0,1-.06-.87,10.14,10.14,0,0,1,2.68-6.53,10.25,10.25,0,0,1,3.27-2.45,9.54,9.54,0,0,1,3.73-1.06,7.19,7.19,0,0,1,0,.92Z"/></svg>